<svg width="119" height="26" viewBox="0 0 119 26" fill="none" xmlns="http://www.w3.org/2000/svg">
<path d="M36.8691 13.5838H43.6421V11.7925H36.8691V7.29132H44.371V5.5H34.8718V20.5007H44.4756V18.7093H36.8691V13.5838Z" fill="white"/>
<path d="M50.9544 18.7906C50.9119 18.9246 50.8727 18.9573 50.7452 18.9573C50.6177 18.9573 50.5785 18.9246 50.536 18.7906L47.4306 9.66406H45.5347V10.0792L49.15 20.497H52.3371L55.9524 10.0792V9.66406H54.0565L50.9544 18.7906Z" fill="white"/>
<path d="M62.3923 19.1881C60.0583 19.1881 58.9339 17.7727 58.7868 15.6055H67.5178V14.5627C67.5178 11.5423 65.7265 9.35547 62.3498 9.35547C58.9731 9.35547 56.8909 11.5423 56.8909 15.0857C56.8909 18.6291 58.8685 20.816 62.3923 20.816C65.8311 20.816 67.2464 18.7109 67.5603 17.0666H65.6022C65.2982 18.2924 64.4157 19.1881 62.3923 19.1881ZM62.353 10.9801C64.5399 10.9801 65.563 12.2288 65.6447 14.043H58.8325C59.0614 12.0424 60.382 10.9801 62.353 10.9801Z" fill="white"/>
<path d="M71.6851 11.1156C71.6426 11.2202 71.6001 11.2823 71.4759 11.2823C71.3713 11.2823 71.3288 11.2398 71.3288 11.1352V9.66749H69.4525V20.5004H71.3288V14.355C71.3288 12.2728 72.2866 11.4588 74.1008 11.4588H75.6012V9.625H74.3917C72.9142 9.62827 72.1656 10.063 71.6851 11.1156Z" fill="white"/>
<path d="M81.8514 19.145C79.6645 19.145 78.1838 17.6871 78.1838 15.0818C78.1838 12.4766 79.6645 11.0187 81.8514 11.0187C83.9336 11.0187 84.8947 12.1006 85.081 13.6239H87.0194C86.8952 11.3325 85.081 9.35156 81.8514 9.35156C78.6022 9.35156 76.2878 11.3946 76.2878 15.0818C76.2878 18.7691 78.5989 20.8121 81.8514 20.8121C85.1006 20.8121 86.9344 18.8312 87.1011 16.2292H85.1627C85.0189 17.9388 83.9565 19.145 81.8514 19.145Z" fill="white"/>
<path d="M93.7497 9.35547C90.6247 9.35547 89.1668 10.9376 89.0818 13.0002H91.0203C91.0627 11.8757 91.8342 10.9801 93.7497 10.9801C95.6653 10.9801 96.4596 11.8757 96.4596 13.4186V14.0005L92.501 14.1672C89.7912 14.2816 88.5425 15.4388 88.5425 17.3118C88.5425 19.394 90.1148 20.8127 92.8018 20.8127C94.2499 20.8127 95.3449 20.3747 96.1262 19.3548C96.2112 19.2404 96.2504 19.2208 96.3354 19.2208C96.4204 19.2208 96.4596 19.2731 96.4596 19.345V20.5022H98.2934V13.5232C98.2901 10.9376 96.8747 9.35547 93.7497 9.35547ZM96.4563 15.7101C96.4563 18.0015 95.103 19.1881 93.0175 19.1881C91.3504 19.1881 90.4122 18.4592 90.4122 17.3118C90.4122 16.3736 91.0366 15.8114 92.4945 15.7493L96.453 15.5826V15.7101H96.4563Z" fill="white"/>
<path d="M105.822 14.3045L104.279 14.0135C102.798 13.7324 102.154 13.4186 102.154 12.523C102.154 11.6273 102.883 10.9605 104.632 10.9605C106.381 10.9605 107.381 11.6273 107.528 13.1048H109.444C109.215 10.4603 107.195 9.35547 104.632 9.35547C102.069 9.35547 100.278 10.4603 100.278 12.5426C100.278 14.6248 101.746 15.344 103.861 15.7395L105.404 16.0304C106.904 16.3115 107.652 16.6351 107.652 17.5733C107.652 18.5115 106.904 19.2077 105.09 19.2077C103.279 19.2077 102.079 18.4592 101.912 17.0601H100.007C100.206 19.6032 102.298 20.8094 105.09 20.8094C107.881 20.8094 109.529 19.6131 109.529 17.4654C109.532 15.3243 107.803 14.6771 105.822 14.3045Z" fill="white"/>
<path d="M114.927 11.3329H118.052V9.6658H114.927V6.75H113.051V9.6658H110.551V11.3329H113.051V17.3737C113.051 19.4886 114.061 20.4987 116.176 20.4987H118.052V18.8316H117.324H115.228C115.124 18.8316 115.071 18.812 115.009 18.7499C114.947 18.6976 114.914 18.6257 114.914 18.5211C114.914 18.3118 114.924 17.8967 114.924 16.4388V11.3329H114.927Z" fill="white"/>
<path d="M0 25.5H22.5026V20.502H5.00131V5.50131H22.5026V0.5H0V25.5Z" fill="white"/>
<path d="M22.4171 10.0312H9.21753V15.3431H22.4171V10.0312Z" fill="white"/>
</svg>
